<?xml version="1.0" standalone="no"?>
<!DOCTYPE svg PUBLIC "-//W3C//DTD SVG 20010904//EN"
 "http://www.w3.org/TR/2001/REC-SVG-20010904/DTD/svg10.dtd">
<svg version="1.0" xmlns="http://www.w3.org/2000/svg"
 width="1073.000000pt" height="251.000000pt" viewBox="0 0 1073.000000 251.000000"
 preserveAspectRatio="xMidYMid meet">

<g transform="translate(0.000000,251.000000) scale(0.100000,-0.100000)"
fill="#ffffff" stroke="none">
<path d="M6445 2423 c-53 -9 -67 -16 -100 -45 -62 -54 -82 -118 -60 -200 42
-165 280 -188 354 -36 40 84 20 183 -49 242 -17 14 -35 26 -38 26 -4 1 -25 4
-47 8 -22 4 -49 6 -60 5z"/>
<path d="M123 2393 c-10 -4 -13 -241 -13 -1144 l0 -1139 135 0 135 0 0 465 0
465 268 1 c294 0 327 2 422 25 182 45 340 162 439 326 72 121 100 319 66 472
-54 246 -248 439 -510 507 -74 20 -110 21 -505 24 -234 1 -431 0 -437 -2z
m877 -273 c116 -32 224 -120 275 -224 38 -77 52 -171 37 -242 -25 -123 -95
-223 -199 -291 -89 -57 -133 -63 -450 -63 l-283 0 0 414 c0 297 3 415 11 418
31 10 567 0 609 -12z"/>
<path d="M1963 2393 c-10 -4 -13 -241 -13 -1144 l0 -1139 135 0 135 0 0 465 0
465 268 1 c294 0 327 2 422 25 182 45 340 162 439 326 72 121 100 319 66 472
-54 246 -248 439 -510 507 -74 20 -110 21 -505 24 -234 1 -431 0 -437 -2z
m877 -273 c116 -32 224 -120 275 -224 38 -77 52 -171 37 -242 -25 -123 -95
-223 -199 -291 -89 -57 -133 -63 -450 -63 l-283 0 0 414 c0 297 3 415 11 418
31 10 567 0 609 -12z"/>
<path d="M4533 2393 c-10 -4 -13 -241 -13 -1144 l0 -1139 135 0 135 0 0 465 0
465 268 1 c294 0 327 2 422 25 182 45 340 162 439 326 72 121 100 319 66 472
-54 246 -248 439 -510 507 -74 20 -110 21 -505 24 -234 1 -431 0 -437 -2z
m877 -273 c116 -32 224 -120 275 -224 38 -77 52 -171 37 -242 -25 -123 -95
-223 -199 -291 -89 -57 -133 -63 -450 -63 l-283 0 0 414 c0 297 3 415 11 418
31 10 567 0 609 -12z"/>
<path d="M10370 1253 l0 -1143 135 0 135 0 0 1143 0 1143 -135 0 -135 0 0
-1143z"/>
<path d="M9156 1779 c-157 -21 -307 -98 -426 -218 -279 -282 -328 -799 -107
-1143 106 -166 263 -278 467 -335 67 -18 273 -25 355 -12 163 26 308 103 435
229 42 42 135 179 127 187 -4 3 -55 29 -114 57 l-107 52 -51 -70 c-59 -83
-148 -154 -232 -186 -73 -28 -238 -39 -322 -20 -226 49 -386 235 -419 488 l-9
62 642 0 643 0 6 23 c10 37 7 117 -9 219 -60 403 -325 651 -716 672 -52 2
-125 0 -163 -5z m235 -249 c64 -12 160 -57 210 -99 20 -17 53 -55 73 -84 36
-56 86 -187 86 -229 l0 -23 -495 3 c-272 1 -495 3 -495 5 0 1 7 22 14 47 48
155 143 278 261 339 91 47 228 63 346 41z"/>
<path d="M6330 925 l0 -815 138 0 139 0 -1 812 -1 813 -137 3 -138 3 0 -816z"/>
<path d="M6887 1728 c26 -33 553 -788 553 -792 0 -4 -351 -512 -517 -748 l-54
-78 159 0 159 0 132 198 c72 109 131 201 131 205 0 18 143 218 149 211 5 -5
100 -145 211 -311 l204 -303 158 0 157 0 -286 408 c-157 224 -286 412 -286
418 0 6 117 174 259 375 143 200 270 379 283 397 l22 32 -158 0 -159 0 -199
-296 c-110 -163 -203 -298 -206 -300 -8 -4 -135 174 -147 206 -4 9 -65 101
-137 204 l-129 186 -154 0 c-122 0 -152 -3 -145 -12z"/>
</g>
</svg>
