<?xml version="1.0" standalone="no"?>
<!DOCTYPE svg PUBLIC "-//W3C//DTD SVG 20010904//EN"
 "http://www.w3.org/TR/2001/REC-SVG-20010904/DTD/svg10.dtd">
<svg version="1.0" xmlns="http://www.w3.org/2000/svg"
 width="1000.000000pt" height="1000.000000pt" viewBox="0 0 1000.000000 1000.000000"
 preserveAspectRatio="xMidYMid meet">

<g transform="translate(0.000000,1000.000000) scale(0.100000,-0.100000)"
fill="#ffffff" stroke="none">
<path d="M4795 9986 c-285 -48 -500 -150 -723 -342 -222 -193 -421 -293 -692
-350 -95 -20 -281 -23 -581 -9 -202 9 -312 -4 -479 -57 -207 -65 -388 -176
-546 -333 -191 -191 -311 -413 -358 -669 -48 -251 -163 -478 -339 -663 -93
-97 -191 -172 -347 -262 -176 -102 -267 -171 -368 -275 -246 -255 -373 -584
-359 -926 9 -196 39 -317 132 -521 109 -240 140 -384 132 -624 -6 -192 -29
-296 -107 -474 -115 -262 -147 -376 -156 -566 -18 -345 110 -684 354 -936 108
-114 207 -188 353 -269 205 -113 345 -229 465 -390 120 -159 189 -316 243
-557 63 -280 168 -472 360 -663 189 -188 412 -307 691 -367 95 -20 299 -23
591 -9 183 10 292 -2 459 -51 174 -50 389 -170 525 -294 203 -183 435 -304
686 -354 123 -25 336 -30 468 -11 129 19 312 76 421 131 102 51 232 141 323
224 228 208 524 336 835 359 l93 7 -138 186 c-76 102 -381 509 -678 905 -297
395 -546 732 -554 749 -19 44 -10 135 18 177 34 49 1633 1248 1690 1267 50 16
113 5 160 -28 15 -11 328 -420 695 -910 l669 -890 51 77 c68 101 210 249 310
321 45 32 132 87 194 122 148 83 261 169 360 274 267 282 393 671 338 1044
-21 137 -52 240 -118 386 -105 231 -138 370 -138 583 0 214 33 359 135 581 89
196 122 321 132 501 19 351 -129 725 -383 970 -107 103 -180 156 -342 248
-162 93 -242 154 -349 265 -178 187 -268 361 -338 651 -55 233 -97 333 -205
495 -196 292 -534 505 -899 566 -87 15 -132 16 -280 9 -310 -14 -494 -10 -601
14 -259 57 -435 145 -647 324 -238 201 -404 288 -670 349 -115 26 -373 34
-488 15z m550 -1675 c182 -14 230 -23 409 -77 363 -109 665 -291 918 -552 226
-234 370 -484 467 -809 47 -161 64 -291 63 -508 0 -212 -15 -337 -63 -533 -51
-208 -115 -357 -219 -513 -335 -497 -857 -828 -1445 -915 -146 -21 -572 -33
-1222 -34 l-573 0 -2 -1357 -3 -1358 -393 -3 -393 -2 4 3227 c5 3037 8 3404
32 3443 6 10 238 11 1144 7 652 -3 1196 -10 1276 -16z"/>
<path d="M3317 8169 c-35 -119 -143 -223 -260 -253 l-52 -13 35 -8 c65 -14
137 -55 184 -105 46 -50 96 -138 96 -172 0 -10 5 -18 10 -18 6 0 10 8 10 18 0
30 47 118 86 161 43 48 105 87 178 112 36 13 44 18 26 18 -43 2 -146 57 -190
102 -46 48 -86 119 -98 176 l-8 38 -17 -56z"/>
<path d="M3729 7563 c-22 -3 -28 -11 -33 -41 -14 -76 -25 -854 -19 -1310 6
-426 8 -472 22 -466 23 9 161 33 194 34 l27 0 0 149 c0 135 2 151 21 175 28
35 80 36 114 1 24 -23 25 -28 25 -179 l0 -155 43 -11 c186 -48 318 -123 445
-253 l53 -54 132 73 c73 41 144 74 158 74 28 0 64 -29 74 -60 13 -42 -16 -73
-142 -145 -67 -38 -125 -73 -128 -76 -3 -3 7 -39 23 -80 16 -41 32 -82 35 -91
7 -21 -6 -21 324 -8 362 13 496 43 668 144 282 167 497 435 594 737 39 125 51
200 51 329 0 306 -117 590 -339 824 -122 128 -338 265 -519 330 -86 31 -198
40 -657 56 -275 9 -1110 12 -1166 3z"/>
<path d="M3749 5511 c-59 -59 -17 -132 66 -117 36 7 85 56 85 85 0 65 -97 86
-151 32z"/>
<path d="M4448 5150 c-22 -13 -41 -74 -33 -102 21 -67 87 -89 124 -42 59 75
-14 189 -91 144z"/>
<path d="M7088 3906 c-64 -47 -253 -188 -420 -314 -167 -125 -478 -360 -693
-521 -214 -161 -402 -307 -417 -324 -32 -35 -43 -81 -34 -132 4 -22 47 -89
118 -184 l112 -150 45 42 c25 23 165 132 311 242 868 654 1406 1054 1440 1072
l40 20 -109 144 c-59 79 -118 153 -130 164 -15 13 -41 20 -84 23 l-62 4 -117
-86z"/>
<path d="M7564 3626 c-27 -12 -459 -334 -1454 -1085 -281 -211 -358 -280 -343
-305 17 -29 335 -446 344 -452 27 -16 74 17 1459 1059 302 227 372 285 392
320 8 16 -19 57 -164 248 -95 126 -180 229 -188 229 -8 -1 -29 -7 -46 -14z m1
-361 c18 -17 25 -35 25 -63 0 -100 -135 -119 -171 -24 -11 28 11 85 38 101 33
19 82 13 108 -14z m-205 -180 c0 -8 -4 -15 -9 -15 -13 0 -22 16 -14 24 11 11
23 6 23 -9z m-189 -28 c64 -34 104 -102 103 -176 -1 -202 -252 -279 -369 -113
-26 39 -30 52 -30 112 0 60 4 74 30 111 60 86 175 114 266 66z m-383 -260
c106 -39 156 -168 107 -277 -17 -38 -50 -66 -257 -221 -204 -153 -243 -179
-283 -185 -134 -20 -243 81 -233 216 3 39 12 69 27 92 24 34 447 360 491 377
34 13 108 12 148 -2z"/>
<path d="M7456 3254 c-25 -25 -30 -61 -12 -89 47 -72 155 -18 125 62 -6 15
-16 31 -22 35 -21 13 -75 9 -91 -8z"/>
<path d="M7948 3122 c-12 -16 -117 -100 -233 -187 -1027 -775 -1497 -1126
-1533 -1144 l-42 -21 389 -518 388 -518 124 -12 c68 -7 174 -12 234 -12 507 1
985 297 1200 745 58 119 84 198 114 345 22 102 53 200 95 294 14 32 26 62 26
66 0 3 -166 228 -369 499 l-369 492 -24 -29z"/>
</g>
</svg>
