<?xml version="1.0" standalone="no"?>
<!DOCTYPE svg PUBLIC "-//W3C//DTD SVG 20010904//EN"
 "http://www.w3.org/TR/2001/REC-SVG-20010904/DTD/svg10.dtd">
<svg version="1.0" xmlns="http://www.w3.org/2000/svg"
 width="512.000000pt" height="512.000000pt" viewBox="0 0 512.000000 512.000000"
 preserveAspectRatio="xMidYMid meet">

<g transform="translate(0.000000,512.000000) scale(0.100000,-0.100000)"
fill="#ffffff" stroke="none">
<path d="M2389 4680 c-630 -107 -1030 -737 -853 -1346 105 -364 391 -642 762
-741 86 -23 116 -26 262 -26 146 0 176 3 262 26 372 99 657 376 762 741 174
601 -218 1231 -834 1342 -80 14 -286 17 -361 4z"/>
<path d="M1141 2110 c-151 -55 -257 -184 -283 -345 -15 -99 -4 -330 22 -430
84 -329 347 -588 760 -749 129 -50 352 -107 510 -131 141 -22 525 -31 671 -16
233 24 411 61 600 127 448 155 736 424 819 765 25 105 37 336 22 434 -23 141
-114 265 -241 328 l-66 32 -1380 2 c-1349 2 -1381 2 -1434 -17z"/>
</g>
</svg>
