<?xml version="1.0" standalone="no"?>
<!DOCTYPE svg PUBLIC "-//W3C//DTD SVG 20010904//EN"
 "http://www.w3.org/TR/2001/REC-SVG-20010904/DTD/svg10.dtd">
<svg version="1.0" xmlns="http://www.w3.org/2000/svg"
 width="512.000000pt" height="512.000000pt" viewBox="0 0 512.000000 512.000000"
 preserveAspectRatio="xMidYMid meet">

<g transform="translate(0.000000,512.000000) scale(0.100000,-0.100000)"
fill="#ffffff" stroke="none">
<path d="M1628 4601 l-42 -39 72 -69 c40 -38 72 -75 72 -81 0 -7 -8 -24 -17
-39 -17 -26 -17 -26 4 -14 31 16 54 14 70 -6 36 -47 170 -252 186 -286 9 -21
17 -50 17 -65 0 -25 -9 -32 -81 -67 -45 -22 -102 -59 -127 -81 -39 -36 -44
-46 -39 -70 l6 -29 -80 3 c-43 2 -79 0 -79 -5 2 -21 78 -53 174 -72 125 -25
150 -26 207 -5 24 8 76 22 114 30 151 32 335 101 335 126 0 4 6 8 13 8 16 0
207 187 207 203 0 7 18 25 40 41 39 29 50 46 31 46 -5 0 -17 7 -26 17 -23 22
-199 28 -270 9 -27 -7 -61 -14 -74 -14 -13 -1 -50 -17 -81 -36 -32 -20 -62
-36 -68 -36 -5 0 -25 -11 -44 -24 l-35 -23 -25 31 c-13 17 -35 49 -48 71 -53
90 -118 187 -205 305 -51 69 -103 144 -115 168 -13 23 -30 42 -37 42 -8 0 -32
-17 -55 -39z"/>
<path d="M1220 4440 c-63 -10 -170 -66 -286 -150 -73 -53 -245 -230 -282 -291
-48 -79 -83 -198 -89 -304 -7 -120 -4 -123 120 -137 193 -22 330 12 556 138
54 30 76 47 236 180 120 100 165 151 195 217 22 47 26 127 9 176 -8 23 -8 39
-1 56 9 20 8 23 -13 23 -12 0 -38 7 -56 17 -129 66 -273 93 -389 75z"/>
<path d="M3211 4099 c12 -8 11 -11 -1 -19 -11 -7 -12 -12 -3 -21 6 -6 9 -18 6
-25 -5 -13 16 -18 64 -17 7 0 15 -8 18 -18 7 -20 103 -97 154 -124 17 -8 31
-20 31 -25 0 -5 9 -12 20 -15 11 -3 20 -15 20 -26 0 -10 7 -19 15 -19 8 0 15
-4 15 -10 0 -13 -17 -13 -25 0 -4 6 -11 8 -16 5 -11 -8 -58 26 -59 42 0 15
-60 28 -69 15 -3 -5 -15 -6 -27 -2 -17 7 -20 14 -17 34 5 25 -10 36 -22 17 -3
-5 -20 -7 -38 -5 -29 5 -34 2 -52 -33 -14 -26 -30 -41 -52 -48 -37 -10 -41
-29 -17 -63 14 -21 14 -25 0 -46 -14 -22 -14 -24 4 -19 11 3 20 0 20 -6 0 -6
15 -11 34 -11 42 0 46 -5 34 -48 -7 -28 -13 -32 -36 -30 -21 2 -26 -1 -24 -14
2 -10 -2 -18 -8 -18 -5 0 -10 12 -10 26 0 22 -2 25 -15 14 -8 -7 -12 -16 -9
-21 6 -11 -35 -48 -53 -49 -7 0 -13 -5 -13 -11 0 -10 -56 -7 -111 6 -31 8 -47
-18 -27 -42 18 -21 -11 -37 -33 -17 -8 8 -35 14 -60 14 -24 0 -59 4 -78 10
-19 5 -44 7 -56 4 -20 -5 -21 -10 -17 -60 4 -49 -11 -114 -26 -114 -3 0 -23
12 -44 27 -33 22 -42 24 -63 15 -16 -8 -23 -17 -19 -27 9 -22 -15 -47 -37 -40
-19 6 -79 -22 -79 -37 0 -11 -50 1 -78 19 -13 8 -34 12 -47 9 -14 -4 -27 0
-35 9 -16 19 -51 19 -93 -1 -24 -11 -42 -32 -61 -70 -27 -53 -58 -72 -69 -41
-2 6 -11 -3 -21 -20 -9 -18 -21 -33 -26 -33 -17 0 -40 -32 -40 -55 0 -14 -8
-29 -19 -35 -27 -14 -28 -14 -23 19 3 21 -2 35 -17 48 -12 10 -24 35 -28 55
-3 21 -8 38 -12 38 -16 -1 -41 -29 -41 -47 0 -26 -25 -47 -42 -37 -7 4 -41 9
-75 10 l-63 2 0 -29 c0 -35 6 -36 37 -7 18 16 26 19 35 10 9 -9 5 -17 -15 -36
-15 -14 -27 -35 -27 -47 0 -11 -11 -30 -25 -41 -21 -16 -24 -26 -20 -52 5 -23
2 -36 -9 -45 -11 -9 -16 -10 -16 -2 0 6 -9 11 -19 11 -14 0 -21 -8 -24 -27 -4
-26 -4 -26 -6 5 -1 28 -4 32 -30 32 -17 0 -33 5 -36 10 -12 19 -33 10 -45 -20
-18 -43 -31 -47 -29 -8 2 18 -3 43 -9 54 -6 12 -8 24 -5 28 3 3 0 6 -7 6 -8 0
-3 11 13 28 20 20 27 38 26 63 -1 23 -3 27 -6 11 -2 -12 -15 -29 -28 -38 -24
-16 -39 -50 -25 -59 13 -8 0 -76 -21 -110 l-19 -30 0 27 c0 21 -6 28 -29 33
-28 6 -29 9 -26 52 1 24 11 57 22 71 17 24 28 55 48 129 13 49 -9 42 -51 -15
-25 -33 -56 -67 -69 -76 -17 -11 -25 -26 -25 -46 0 -35 -13 -39 -33 -10 -14
20 -15 20 -19 2 -5 -19 -59 -52 -83 -52 -19 0 -39 73 -27 97 6 11 14 42 18 70
5 40 3 51 -9 56 -16 6 -33 -9 -52 -47 -7 -11 -16 -20 -22 -19 -6 1 -14 -4 -17
-12 -3 -8 -1 -15 4 -15 6 0 10 -4 10 -10 0 -5 -6 -7 -14 -4 -8 3 -20 -3 -27
-13 -8 -10 -26 -23 -40 -30 -17 -7 -29 -24 -37 -52 -7 -23 -17 -41 -22 -41 -6
0 -10 -9 -10 -20 0 -11 -5 -20 -11 -20 -5 0 -7 -5 -3 -12 4 -6 0 -16 -8 -22
-45 -33 -62 -375 -28 -556 50 -268 194 -550 422 -824 100 -120 373 -392 465
-463 182 -142 255 -181 458 -247 114 -37 235 -37 314 0 60 29 58 29 201 -12
35 -10 101 -16 180 -17 113 -1 133 2 210 27 47 16 97 37 112 47 14 11 29 19
32 19 3 0 66 29 141 65 75 36 141 65 146 65 6 0 34 22 62 49 29 27 84 66 122
87 107 58 270 235 338 366 121 236 205 515 258 851 19 123 21 166 16 390 -5
224 -8 264 -31 357 -42 178 -56 222 -95 305 -21 44 -42 91 -46 105 -10 32
-104 174 -148 222 -101 113 -194 193 -254 219 -18 8 -33 17 -33 21 0 5 -7 8
-15 8 -8 0 -30 14 -48 30 -19 17 -38 30 -41 30 -4 0 -24 11 -46 25 -22 14 -44
25 -50 25 -5 0 -19 9 -30 20 -12 12 -25 18 -29 15 -5 -2 -26 2 -47 11 -41 18
-147 28 -123 13z m19 -319 c0 -5 -7 -10 -15 -10 -8 0 -15 5 -15 10 0 6 7 10
15 10 8 0 15 -4 15 -10z m221 1 c-8 -5 -20 -7 -28 -4 -21 8 -15 13 15 13 20 0
23 -3 13 -9z m-101 -271 c0 -12 -8 -12 -35 0 -18 8 -17 9 8 9 15 1 27 -3 27
-9z m-332 -51 c-2 -6 -7 -10 -11 -10 -4 1 -15 1 -24 1 -15 0 -16 2 -3 10 20
13 43 13 38 -1z m-591 -251 c-3 -8 -6 -5 -6 6 -1 11 2 17 5 13 3 -3 4 -12 1
-19z m-605 -162 c13 -19 9 -26 -14 -26 -18 0 -23 6 -23 24 0 24 21 25 37 2z
m50 -623 l-10 -48 -1 60 c-1 43 2 56 10 48 8 -8 9 -25 1 -60z"/>
<path d="M2760 3522 c0 -10 33 -42 43 -42 14 0 7 23 -10 36 -21 16 -33 18 -33
6z"/>
<path d="M2404 3493 c-8 -3 -9 -16 -3 -42 18 -79 25 -89 63 -89 50 0 59 15 40
71 -15 43 -18 47 -49 47 -18 0 -35 4 -37 9 -1 4 -8 6 -14 4z"/>
<path d="M2290 3459 c0 -5 5 -7 10 -4 6 3 10 8 10 11 0 2 -4 4 -10 4 -5 0 -10
-5 -10 -11z"/>
<path d="M2600 3414 c0 -21 47 -41 62 -26 15 15 9 20 -31 32 -25 7 -31 6 -31
-6z"/>
<path d="M1135 3303 c-25 -28 -33 -53 -16 -53 5 0 11 -18 15 -40 3 -22 11 -40
16 -40 12 0 13 30 1 50 -7 10 -4 18 10 28 12 9 19 25 19 48 0 41 -11 43 -45 7z"/>
<path d="M2010 3233 c0 -33 3 -38 25 -39 16 -1 25 3 25 13 0 8 -4 12 -9 8 -12
-7 -30 25 -24 43 3 6 0 12 -6 12 -6 0 -11 -17 -11 -37z"/>
<path d="M1680 3234 c-9 -10 -10 -18 -3 -25 8 -8 14 -5 22 9 13 25 -2 38 -19
16z"/>
<path d="M1765 3190 c4 -6 11 -8 16 -5 14 9 11 15 -7 15 -8 0 -12 -5 -9 -10z"/>
<path d="M1565 3108 c-22 -73 -25 -91 -19 -110 6 -21 7 -21 20 -3 20 26 36 89
28 109 -7 19 -23 21 -29 4z"/>
</g>
</svg>
