<?xml version="1.0" standalone="no"?>
<!DOCTYPE svg PUBLIC "-//W3C//DTD SVG 20010904//EN"
 "http://www.w3.org/TR/2001/REC-SVG-20010904/DTD/svg10.dtd">
<svg version="1.0" xmlns="http://www.w3.org/2000/svg"
 width="1280.000000pt" height="720.000000pt" viewBox="0 0 1280.000000 720.000000"
 preserveAspectRatio="xMidYMid meet">

<g transform="translate(0.000000,720.000000) scale(0.100000,-0.100000)"
fill="#ffffff" stroke="none">
<path d="M1637 4294 c-3 -4 8 -24 26 -46 l32 -40 -23 -18 c-35 -28 -28 -43 16
-35 49 9 96 37 100 59 4 19 4 19 -64 0 -16 -4 -27 4 -51 40 -16 26 -32 43 -36
40z"/>
<path d="M724 4265 c3 -9 51 -81 106 -160 55 -80 100 -150 100 -156 0 -6 -42
-59 -92 -118 -131 -150 -125 -141 -97 -141 18 0 47 27 118 110 51 61 96 110
100 110 3 0 39 -50 80 -110 l75 -110 94 0 94 0 -35 48 c-18 26 -72 103 -119
172 l-86 125 64 75 c158 183 149 170 122 170 -19 0 -46 -25 -114 -104 -56 -66
-93 -101 -99 -96 -6 5 -40 52 -75 105 l-64 95 -89 0 c-76 0 -88 -2 -83 -15z
m325 -265 c94 -137 174 -257 177 -265 5 -12 -3 -15 -45 -15 l-50 0 -173 252
c-95 138 -177 257 -181 265 -6 10 4 13 46 13 l55 0 171 -250z"/>
<path d="M1545 4252 c-39 -24 -54 -43 -65 -80 -10 -35 5 -46 48 -36 27 7 90
48 104 68 16 23 8 54 -14 60 -34 9 -40 8 -73 -12z"/>
<path d="M1895 4194 c17 -13 22 -22 13 -18 -10 3 -25 3 -34 0 -13 -5 -14 -9
-5 -20 10 -12 5 -16 -26 -26 -21 -7 -47 -19 -58 -26 -11 -8 -31 -14 -46 -14
-15 0 -32 -6 -38 -14 -6 -7 -22 -11 -35 -9 -18 4 -25 0 -28 -13 -2 -12 -13
-18 -31 -19 -23 -2 -26 1 -21 19 7 21 6 21 -15 2 -20 -19 -21 -19 -21 0 0 17
-2 17 -22 -4 -29 -28 -30 -111 -4 -162 30 -57 86 -121 134 -151 87 -55 230
-32 305 50 34 37 58 104 64 181 9 108 -29 190 -107 230 -52 27 -61 25 -25 -6z"/>
<path d="M6733 4105 c-29 -20 -37 -59 -19 -94 35 -66 127 -50 142 24 12 65
-66 110 -123 70z"/>
<path d="M3910 3653 l0 -459 48 2 c26 1 50 2 55 3 4 0 7 84 7 185 l0 184 143
4 c123 3 148 6 184 26 47 25 107 83 131 127 23 42 23 188 0 230 -26 47 -82
100 -135 126 -45 22 -62 24 -240 27 l-193 4 0 -459z m350 346 c76 -17 130 -86
130 -164 0 -68 -55 -135 -125 -154 -22 -6 -86 -11 -142 -11 l-103 0 0 170 0
170 98 0 c53 0 117 -5 142 -11z"/>
<path d="M4650 3653 l0 -459 48 2 c26 1 50 2 55 3 4 0 7 84 7 185 l0 184 143
4 c160 4 194 15 262 85 60 61 70 88 70 183 0 60 -5 94 -17 115 -26 47 -82 100
-135 126 -45 22 -62 24 -240 27 l-193 4 0 -459z m350 346 c76 -17 130 -86 130
-164 0 -68 -55 -135 -125 -154 -22 -6 -86 -11 -142 -11 l-103 0 0 170 0 170
98 0 c53 0 117 -5 142 -11z"/>
<path d="M6000 3653 l0 -459 48 2 c26 1 50 2 55 3 4 0 7 84 7 185 l0 184 143
4 c160 4 194 15 262 85 60 61 70 88 70 183 0 60 -5 94 -17 115 -26 47 -82 100
-135 126 -45 22 -62 24 -240 27 l-193 4 0 -459z m350 346 c76 -17 130 -86 130
-164 0 -68 -55 -135 -125 -154 -22 -6 -86 -11 -142 -11 l-103 0 0 170 0 170
98 0 c53 0 117 -5 142 -11z"/>
<path d="M8352 3653 l3 -457 47 -1 c35 -1 49 3 52 14 2 9 4 215 3 459 l0 442
-54 0 -53 0 2 -457z"/>
<path d="M10136 4074 c-72 -26 -147 -98 -161 -154 -5 -23 -2 -27 32 -39 21 -8
43 -16 49 -18 6 -2 14 6 17 19 9 36 70 89 113 98 78 18 160 -14 191 -73 25
-48 19 -120 -13 -175 -15 -26 -112 -133 -216 -238 l-188 -191 0 -51 c0 -31 5
-51 13 -54 10 -3 512 -2 540 1 4 1 7 24 7 51 l0 50 -206 0 -207 0 164 168
c175 178 212 231 230 327 8 45 7 67 -6 110 -21 74 -94 148 -167 170 -63 18
-140 18 -192 -1z"/>
<path d="M10839 4077 c-95 -36 -150 -94 -169 -181 -18 -80 3 -140 70 -205 l38
-37 -46 -35 c-151 -112 -123 -323 55 -411 57 -28 75 -32 144 -31 90 0 163 29
219 86 104 104 94 270 -23 357 l-46 35 39 38 c51 51 70 94 70 156 0 90 -41
157 -127 208 -52 30 -168 41 -224 20z m140 -95 c13 -1 41 -19 62 -41 36 -36
39 -43 39 -94 0 -96 -60 -143 -170 -135 -49 3 -65 9 -90 33 -97 93 -25 250
110 240 14 -1 36 -3 49 -3z m32 -396 c62 -26 99 -81 99 -146 0 -109 -95 -175
-226 -155 -57 8 -120 61 -134 114 -19 72 22 154 95 187 40 18 124 18 166 0z"/>
<path d="M11548 4074 c-64 -20 -149 -99 -178 -166 -30 -69 -31 -156 -3 -219
56 -125 206 -202 319 -163 21 7 39 12 40 11 1 -1 -45 -69 -104 -151 l-106
-149 35 -28 c19 -16 39 -28 44 -28 14 -1 279 402 312 474 35 78 42 164 18 236
-26 76 -112 161 -185 183 -65 19 -129 19 -192 0z m157 -99 c13 -3 41 -19 60
-37 80 -70 88 -186 17 -261 -135 -142 -368 -19 -321 170 16 62 72 118 131 131
41 9 57 9 113 -3z"/>
<path d="M3133 4065 c-197 -44 -356 -215 -383 -410 -27 -199 70 -398 243 -499
62 -37 174 -66 252 -66 60 0 172 23 188 39 4 4 0 25 -9 45 -13 26 -22 35 -33
30 -49 -20 -95 -26 -171 -22 -70 3 -98 10 -153 36 -261 122 -311 467 -97 665
202 187 528 120 649 -133 23 -49 26 -67 26 -165 0 -93 -3 -115 -20 -145 -18
-30 -27 -35 -62 -38 -34 -3 -44 1 -62 24 -20 25 -21 39 -21 210 l0 184 -45 0
c-44 0 -45 -1 -45 -32 l0 -32 -27 26 c-37 35 -96 58 -148 58 -58 0 -141 -45
-182 -98 -103 -135 -50 -344 103 -408 76 -32 192 -8 246 51 l25 27 22 -31 c33
-46 75 -64 136 -59 67 6 107 34 140 102 51 105 44 253 -19 381 -98 199 -334
310 -553 260z m186 -342 c48 -36 71 -81 71 -140 0 -111 -54 -168 -157 -168
-70 0 -104 19 -137 75 -28 47 -26 136 3 183 44 72 155 97 220 50z"/>
<path d="M9407 3764 c-183 -269 -207 -310 -207 -345 l0 -39 210 0 210 0 0 -90
c0 -49 3 -91 8 -91 4 -1 28 -2 55 -3 l47 -2 0 93 0 93 55 0 55 0 0 55 0 55
-55 0 -55 0 0 290 0 290 -58 0 -59 0 -206 -306z m213 -66 l0 -213 -145 0 c-80
0 -144 3 -142 6 4 9 282 418 285 419 1 0 2 -96 2 -212z"/>
<path d="M7825 3856 c-66 -21 -101 -43 -144 -92 -72 -81 -104 -208 -81 -319
34 -168 155 -268 320 -268 84 1 141 20 205 68 31 24 75 82 75 98 0 4 -18 16
-40 27 l-40 20 -47 -49 c-38 -39 -58 -51 -98 -59 -129 -27 -247 52 -269 181
l-7 37 262 0 262 0 -6 69 c-12 150 -86 246 -217 285 -63 19 -120 19 -175 2z
m185 -111 c40 -20 80 -76 87 -119 l6 -36 -197 0 c-108 0 -196 4 -196 9 0 49
79 144 133 160 41 13 130 5 167 -14z"/>
<path d="M6732 3523 l3 -327 47 -1 c35 -1 49 3 52 14 2 9 4 156 3 326 l-2 310
-53 3 -52 3 2 -328z"/>
<path d="M6956 3838 c4 -7 54 -79 111 -160 57 -81 103 -149 103 -152 0 -3 -49
-75 -110 -162 -60 -86 -110 -160 -110 -163 0 -4 27 -6 60 -6 l60 0 76 115 c42
63 80 119 84 123 4 5 45 -46 90 -112 46 -67 86 -122 89 -122 14 -3 121 -5 121
-2 0 1 -37 55 -83 120 -45 65 -97 139 -115 164 l-31 47 105 148 c58 81 108
153 111 161 4 10 -9 13 -54 13 l-59 0 -78 -115 c-43 -64 -82 -117 -86 -120 -4
-2 -44 50 -89 115 l-82 120 -60 0 c-45 0 -58 -3 -53 -12z"/>
<path d="M785 3449 c-42 -6 -67 -16 -85 -34 -25 -25 -25 -27 -25 -193 0 -143
3 -172 17 -195 29 -44 79 -52 318 -52 311 0 315 3 315 235 -1 233 -12 242
-295 246 -102 2 -212 -1 -245 -7z m222 -180 c48 -28 89 -52 90 -53 3 -2 -159
-96 -179 -104 -4 -2 -8 44 -8 102 0 58 2 106 4 106 3 0 44 -23 93 -51z"/>
<path d="M1610 3408 c-71 -36 -120 -152 -120 -284 l0 -61 59 -32 c32 -17 66
-31 75 -31 13 0 43 38 34 44 -2 2 -12 9 -23 15 -17 11 -15 11 15 5 104 -20
161 -20 255 1 27 6 28 5 10 -6 -11 -7 -21 -13 -23 -15 -9 -6 21 -44 34 -44 9
0 43 14 75 31 l59 32 0 61 c0 75 -22 163 -56 226 -21 38 -34 50 -72 63 -55 20
-79 21 -84 5 -6 -18 -138 -19 -145 -1 -8 19 -43 16 -93 -9z m102 -175 c24 -21
23 -58 -2 -83 -19 -19 -40 -18 -67 3 -21 16 -15 64 9 81 28 20 37 20 60 -1z
m190 0 c38 -34 6 -112 -41 -96 -42 15 -53 61 -21 93 24 24 38 25 62 3z"/>
<path d="M5290 2965 l0 -45 303 2 302 3 0 40 0 40 -303 3 -302 2 0 -45z"/>
<path d="M8540 2965 l0 -45 303 2 302 3 0 40 0 40 -303 3 -302 2 0 -45z"/>
</g>
</svg>
